<?xml version="1.0" standalone="no"?>
<!DOCTYPE svg PUBLIC "-//W3C//DTD SVG 20010904//EN"
 "http://www.w3.org/TR/2001/REC-SVG-20010904/DTD/svg10.dtd">
<svg version="1.0" xmlns="http://www.w3.org/2000/svg"
 width="1982.000000pt" height="1982.000000pt" viewBox="0 0 1982.000000 1982.000000"
 preserveAspectRatio="xMidYMid meet">
<metadata>
Created by potrace 1.14, written by Peter Selinger 2001-2017
</metadata>
<g transform="translate(0.000000,1982.000000) scale(0.100000,-0.100000)"
fill="#000000" stroke="none">
<path d="M9947 19183 c-2 -1 -29 -5 -60 -8 -32 -2 -66 -9 -76 -15 -18 -9 -179
-323 -196 -380 -4 -14 -13 -38 -20 -55 -48 -108 -104 -262 -174 -475 -76 -234
-83 -262 -117 -500 -3 -19 -13 -93 -24 -165 -10 -71 -21 -148 -24 -170 -3 -22
-10 -74 -16 -115 -16 -119 -19 -141 -25 -210 -12 -137 -16 -176 -20 -215 -2
-22 -7 -78 -10 -126 -5 -77 -4 -87 15 -104 16 -14 19 -27 16 -54 -9 -58 -17
-133 -21 -181 -5 -57 -14 -128 -20 -160 -4 -24 -13 -106 -20 -180 -3 -38 -13
-124 -21 -180 -2 -19 -6 -58 -9 -85 -2 -28 -6 -64 -9 -80 -2 -17 -7 -57 -11
-90 -3 -33 -8 -71 -9 -85 -10 -76 -19 -148 -21 -170 -2 -14 -6 -56 -10 -95 -3
-38 -8 -77 -10 -85 -2 -8 -7 -44 -10 -80 -6 -60 -19 -181 -29 -258 -3 -18 -8
-67 -11 -110 -4 -42 -9 -79 -10 -82 -2 -3 -6 -39 -10 -80 -4 -41 -8 -82 -10
-90 -2 -8 -6 -44 -9 -80 -7 -63 -12 -106 -21 -180 -6 -48 -25 -214 -31 -275
-16 -168 -30 -231 -139 -650 -25 -93 -87 -334 -139 -535 -81 -314 -139 -506
-176 -585 -5 -11 -16 -40 -24 -65 -8 -25 -87 -243 -176 -485 -89 -242 -163
-447 -165 -455 -14 -51 -71 -286 -96 -400 -38 -166 -28 -124 -89 -385 -28
-121 -54 -231 -56 -245 -3 -14 -9 -38 -14 -55 -35 -119 -51 -227 -46 -311 6
-85 11 -181 21 -364 3 -47 7 -125 10 -175 3 -49 8 -129 10 -177 l4 -88 -102 0
c-281 -2 -385 -10 -580 -45 -96 -17 -156 -28 -182 -32 -28 -5 -152 -48 -220
-78 -16 -7 -47 -19 -67 -26 -38 -13 -101 -67 -175 -150 -41 -46 -41 -47 -41
-125 1 -44 4 -86 9 -95 5 -9 4 -20 -2 -26 -9 -9 -16 -183 -19 -509 l0 -41
-382 1 c-211 1 -399 -3 -418 -7 -19 -5 -59 -29 -87 -54 -29 -24 -61 -45 -70
-45 -22 -1 -125 10 -248 27 -22 3 -62 7 -90 10 -27 3 -63 7 -80 10 -16 2 -57
7 -90 10 -33 3 -71 7 -85 10 -14 3 -47 7 -75 10 -62 7 -130 15 -170 20 -16 2
-57 7 -90 11 -33 3 -67 8 -75 9 -8 2 -46 6 -85 10 -38 4 -81 9 -95 11 -41 4
-122 14 -170 20 -89 11 -106 13 -150 18 -46 5 -198 23 -260 31 -84 10 -146 18
-160 20 -8 1 -46 6 -85 10 -38 4 -79 9 -89 11 -11 2 -47 6 -80 9 -34 3 -70 7
-81 9 -11 2 -47 7 -80 10 -33 3 -76 8 -95 11 -55 7 -110 14 -175 21 -33 3 -68
8 -77 9 -9 2 -48 7 -85 11 -37 3 -77 8 -88 9 -51 7 -194 25 -235 29 -48 6
-113 13 -170 21 -19 2 -62 7 -95 11 -33 3 -67 7 -75 9 -8 1 -44 6 -80 10 -36
3 -76 8 -90 10 -14 2 -50 7 -80 10 -30 3 -71 7 -90 10 -19 3 -53 7 -75 9 -22
3 -58 8 -80 10 -22 3 -65 8 -95 11 -85 8 -88 10 -85 54 1 21 5 43 9 49 3 6 2
13 -4 17 -6 4 -8 10 -5 15 5 8 9 69 19 330 2 47 7 155 11 240 4 85 9 187 10
225 2 39 4 80 4 92 1 19 6 22 34 21 18 -1 66 11 105 26 l72 28 1 66 c5 200 4
194 43 251 20 29 36 63 37 75 0 11 2 28 4 36 1 8 6 33 9 55 4 22 9 48 12 58 3
9 2 27 -1 38 -7 21 -11 22 -99 15 -50 -3 -110 -9 -133 -12 l-42 -6 -3 98 c-2
55 0 126 3 159 3 33 3 65 0 70 -3 6 -4 18 -2 29 1 10 -3 22 -11 27 -10 7 -13
75 -13 341 l0 333 -31 3 c-17 2 -35 -3 -41 -10 -6 -7 -14 -74 -18 -148 -3 -74
-8 -151 -10 -170 -2 -19 -6 -96 -10 -170 -8 -163 -6 -152 -26 -167 -9 -7 -16
-28 -17 -49 -1 -20 -3 -38 -4 -39 -2 -2 -37 -6 -78 -10 -41 -4 -78 -9 -81 -10
-3 -2 -31 -5 -63 -6 -42 -2 -60 -7 -66 -19 -5 -10 -8 -19 -6 -21 2 -2 7 -49
11 -104 4 -55 9 -108 11 -119 7 -38 77 -241 87 -254 8 -10 5 -14 -11 -19 -14
-3 -22 -14 -23 -27 0 -11 -3 -67 -5 -123 -5 -89 -3 -107 16 -142 11 -23 25
-41 32 -41 6 0 42 -9 80 -21 l69 -20 -6 -142 c-4 -78 -8 -185 -10 -237 -3 -88
-15 -378 -20 -515 -2 -33 -3 -74 -4 -92 -1 -35 -2 -35 -116 -18 -16 3 -57 8
-90 11 -33 4 -67 8 -75 10 -8 1 -23 3 -32 3 -13 1 -17 8 -14 23 2 19 10 23 50
26 39 3 63 14 124 58 42 30 80 55 83 56 4 2 10 50 13 108 8 127 10 133 40 149
20 11 23 21 25 78 2 60 0 68 -25 94 -23 24 -28 37 -26 72 3 41 1 44 -60 92
-88 71 -108 83 -153 89 -36 6 -60 10 -120 21 -11 2 -30 4 -41 4 -24 1 -23 -25
-10 266 4 77 9 187 11 245 2 58 6 159 10 225 3 66 7 172 10 235 3 63 7 168 10
232 l5 117 -27 18 c-16 9 -30 18 -32 20 -5 3 0 180 13 478 9 175 13 286 21
495 7 184 13 292 17 295 2 2 32 6 67 9 52 6 73 14 115 44 57 41 52 24 57 208
l3 91 -36 39 c-27 28 -34 42 -28 54 8 15 31 102 46 170 3 14 9 41 14 60 5 19
12 58 15 85 4 28 8 61 10 75 2 14 7 55 10 91 l7 67 -28 6 c-30 6 -143 25 -179
30 -15 2 -21 12 -23 42 -2 21 -9 42 -17 46 -10 6 -12 76 -10 360 2 232 0 357
-7 366 -12 14 -57 16 -78 2 -8 -5 -16 -17 -16 -27 -8 -118 -21 -291 -29 -388
-3 -33 -7 -94 -10 -135 -9 -134 -14 -165 -29 -175 -10 -8 -16 -42 -20 -115 -4
-58 -9 -148 -12 -199 -3 -52 -8 -99 -11 -104 -3 -5 -16 -6 -29 -3 -13 4 -46 9
-72 12 -26 3 -55 7 -65 10 -33 10 -52 -32 -49 -106 7 -141 10 -178 16 -189 4
-6 0 -18 -8 -27 -9 -8 -17 -25 -17 -37 -1 -12 -3 -33 -4 -47 -1 -14 -4 -63 -5
-109 l-3 -84 41 -39 c41 -39 72 -53 142 -64 19 -3 38 -8 41 -10 4 -2 5 -36 4
-76 -2 -40 -6 -147 -10 -238 -3 -91 -8 -208 -10 -260 -2 -52 -7 -160 -10 -240
-3 -80 -8 -208 -11 -285 -5 -136 -10 -182 -21 -171 -3 2 -16 -5 -28 -17 -27
-25 -26 -12 -50 -647 -3 -80 -8 -183 -10 -230 -2 -47 -7 -159 -10 -250 -7
-202 -7 -203 -31 -206 -25 -4 -185 -17 -204 -17 -11 0 -142 -83 -179 -113 -2
-2 -5 -23 -6 -48 -1 -34 -8 -50 -26 -65 -13 -11 -26 -20 -29 -21 -3 0 -6 -32
-7 -70 -2 -65 0 -72 23 -87 25 -16 25 -18 22 -130 -3 -126 -5 -121 76 -188 96
-79 90 -71 67 -87 -27 -19 -43 -62 -47 -123 -5 -100 -19 -429 -39 -905 -2 -58
-7 -168 -10 -245 -3 -77 -8 -187 -10 -245 -9 -215 -15 -368 -20 -465 -2 -55
-7 -170 -11 -255 -3 -85 -7 -179 -8 -208 -4 -82 3 -89 139 -133 l120 -39 -2
-57 c-1 -32 -2 -94 -2 -138 l-1 -80 -61 -30 c-34 -16 -63 -34 -65 -40 -2 -5
-5 -72 -7 -148 l-4 -139 31 -23 c47 -34 68 -43 119 -49 25 -3 63 -9 84 -13 47
-8 95 -8 200 0 59 5 84 4 89 -5 7 -11 7 -202 -1 -333 -11 -198 -17 -368 -18
-495 l-2 -144 50 -27 c44 -23 99 -37 156 -38 12 -1 15 -11 13 -47 -4 -54 11
-88 63 -145 35 -38 36 -43 34 -102 -2 -34 -4 -97 -6 -140 -4 -87 -3 -85 -31
-90 -10 -2 -28 -7 -39 -11 -11 -5 -25 -9 -31 -11 -10 -3 -19 -158 -16 -258 2
-63 67 -86 259 -94 124 -5 254 14 269 39 4 6 8 40 10 77 12 212 6 237 -57 247
l-38 6 5 137 5 136 54 51 c44 41 55 57 58 90 4 31 8 39 23 37 50 -5 122 -14
144 -18 14 -2 50 -7 80 -10 30 -4 66 -8 80 -10 14 -3 45 -7 70 -9 42 -5 254
-31 325 -41 16 -2 53 -7 80 -10 28 -4 61 -8 75 -10 14 -2 50 -6 80 -9 30 -3
64 -8 75 -10 11 -2 47 -7 80 -10 33 -4 74 -9 90 -11 61 -9 109 -15 273 -36 92
-11 181 -22 197 -24 17 -3 68 -9 115 -15 117 -15 161 -21 190 -25 14 -2 52 -7
85 -10 33 -3 70 -7 82 -9 12 -3 46 -7 75 -10 29 -4 63 -8 75 -10 12 -3 46 -7
75 -10 29 -4 69 -8 88 -11 19 -2 58 -7 85 -10 28 -3 61 -8 75 -10 14 -2 49 -7
78 -10 29 -2 63 -7 75 -9 12 -3 47 -8 78 -11 31 -3 65 -7 75 -9 11 -2 50 -7
89 -11 38 -4 72 -8 75 -10 3 -2 32 -6 65 -9 61 -6 79 -8 220 -26 93 -12 137
-18 185 -25 19 -2 55 -7 80 -9 48 -5 84 -10 165 -22 28 -4 59 -8 70 -9 20 -2
115 -13 170 -20 17 -2 50 -7 75 -10 25 -3 59 -7 75 -10 17 -2 53 -7 80 -10 28
-3 64 -8 80 -10 17 -2 53 -7 80 -10 28 -3 64 -8 80 -10 34 -5 124 -16 395 -50
69 -9 143 -18 165 -22 22 -3 46 -6 53 -6 14 0 13 -40 -7 -182 -8 -55 -8 -111
-1 -316 2 -42 0 -81 -3 -86 -4 -6 -3 -13 0 -17 4 -4 8 -48 8 -99 1 -51 5 -99
10 -107 5 -8 4 -11 -2 -7 -6 4 -13 0 -17 -8 -3 -8 0 -17 6 -21 7 -5 8 -2 3 7
-5 8 -4 11 0 6 11 -10 14 -48 3 -41 -4 3 -8 0 -8 -5 0 -6 5 -11 10 -11 6 0 10
-5 10 -11 0 -5 -4 -8 -8 -5 -4 2 -7 -53 -6 -122 1 -116 4 -132 28 -180 14 -29
32 -55 40 -58 11 -4 10 -23 -5 -106 -17 -92 -18 -140 -13 -512 7 -481 7 -494
20 -504 91 -77 108 -86 243 -123 75 -20 165 -40 201 -44 36 -4 72 -8 80 -10 8
-2 44 -6 80 -10 36 -4 74 -9 85 -11 26 -6 309 -17 450 -17 121 0 415 11 455
18 31 6 72 12 125 20 23 3 50 7 61 9 12 2 44 7 72 11 78 10 274 82 294 108 10
12 22 27 27 33 17 20 30 51 25 57 -3 3 -1 14 5 25 6 11 7 23 3 27 -10 9 -10
55 0 49 4 -3 8 -1 8 5 0 5 -6 12 -12 14 -9 4 -9 8 -3 14 6 4 11 60 11 123 1
63 5 192 8 285 10 259 10 354 2 425 -5 36 -10 67 -12 70 -5 10 9 24 55 58 l45
32 3 117 c2 99 6 188 12 296 1 16 12 17 139 12 75 -3 184 -8 242 -10 58 -2
195 -7 305 -11 249 -11 592 -10 835 0 178 8 266 12 413 17 37 1 69 0 72 -2 3
-4 16 -298 18 -429 0 -28 -9 -90 -24 -169 -7 -36 -9 -134 -5 -280 14 -494 16
-550 21 -655 3 -59 8 -112 11 -118 9 -15 178 -95 215 -102 58 -11 82 -15 159
-31 111 -23 115 -23 172 -29 156 -17 217 -20 488 -20 273 0 437 6 514 19 17 3
54 7 81 9 41 4 134 21 228 42 9 2 27 6 40 9 12 2 35 8 52 11 16 4 72 26 122
50 76 35 93 47 94 66 7 128 9 240 11 593 2 226 -1 437 -5 470 l-9 60 85 42
c78 38 85 44 94 80 13 52 15 127 17 655 1 441 1 448 21 449 39 1 214 18 260
24 17 2 62 7 100 10 39 3 77 8 85 10 8 2 53 6 100 10 47 3 99 8 115 10 45 6
144 16 195 20 52 5 144 15 180 20 14 2 59 6 100 10 41 3 86 7 100 9 14 3 61 7
104 11 43 4 86 8 95 10 9 1 52 6 96 9 44 4 91 9 105 11 14 2 57 6 95 10 39 3
81 8 95 10 14 2 61 6 105 10 44 3 91 8 105 10 28 4 106 12 195 20 75 7 153 15
185 20 14 2 63 7 110 10 47 4 87 8 90 10 3 2 45 6 93 10 48 3 96 8 105 9 9 2
53 7 97 10 44 4 91 9 105 11 32 4 115 13 205 20 39 3 81 8 95 10 14 2 57 7 95
10 39 4 88 9 110 12 41 5 68 8 170 17 33 3 80 8 105 10 25 3 72 8 105 11 33 3
76 8 95 10 19 2 62 7 95 10 33 3 83 8 110 11 78 8 125 13 195 19 36 3 74 7 85
9 24 4 191 20 220 20 15 1 21 -6 23 -31 2 -24 17 -44 57 -80 l54 -49 6 -124
c4 -69 9 -128 11 -132 6 -9 -25 -38 -41 -38 -8 0 -26 -11 -41 -25 -30 -28 -30
-30 -20 -189 4 -48 9 -92 11 -96 22 -35 260 -60 372 -39 26 5 62 12 78 15 17
3 41 16 55 29 24 23 25 31 24 107 -1 46 -3 106 -3 135 l-1 52 -54 17 -53 17
-2 71 c-2 39 -4 103 -6 141 l-4 70 52 59 c45 53 52 65 52 104 0 32 4 46 15 47
8 1 40 5 70 8 58 6 174 52 167 65 -4 6 -9 125 -22 562 -2 58 -7 200 -10 315
-9 285 -12 377 -19 680 -4 143 -9 274 -11 291 -4 31 -2 32 53 52 155 56 266
91 270 87 2 -2 6 -38 8 -78 4 -71 3 -75 -19 -81 -13 -3 -40 -20 -60 -37 l-37
-31 4 -82 c2 -44 4 -110 5 -146 l1 -66 54 -26 c119 -59 444 -43 529 26 l38 31
-4 147 c-2 82 -6 150 -8 152 -2 2 -30 16 -61 30 -32 13 -58 29 -59 33 -3 21
-7 86 -10 172 l-3 95 134 46 c74 26 143 50 154 55 17 7 18 19 11 194 -10 264
-13 329 -19 481 -3 74 -8 194 -11 265 -3 72 -8 177 -10 235 -3 58 -7 168 -10
245 -3 77 -7 185 -10 240 -2 55 -7 163 -10 240 -3 77 -8 190 -10 250 -3 61 -8
164 -10 230 -3 66 -8 127 -10 135 -3 8 -20 25 -39 37 l-34 22 69 70 69 70 -1
110 c-1 98 1 112 20 132 17 19 21 36 21 93 0 63 -3 72 -25 91 -18 14 -26 32
-29 63 -4 40 -20 72 -36 72 -4 0 -44 21 -89 47 -84 47 -87 48 -229 54 -29 1
-55 6 -57 10 -6 8 -13 136 -20 344 -3 77 -7 192 -10 255 -9 219 -16 385 -20
470 -2 47 -5 122 -6 168 -3 82 -3 83 -36 103 -30 19 -33 25 -34 72 0 29 -2 90
-4 137 -2 47 -6 157 -10 245 -3 88 -7 201 -10 250 -2 50 -7 162 -10 250 -3 88
-8 199 -10 247 l-3 87 75 17 c66 16 80 23 112 60 l36 42 0 133 c0 74 -3 137
-8 140 -4 3 -1 21 7 40 8 19 17 81 21 139 4 58 9 108 11 111 2 3 -3 15 -11 27
-16 22 -12 22 -160 -3 -44 -7 -81 -12 -83 -10 -5 4 -9 46 -17 160 -4 55 -9
118 -11 140 -1 22 -3 54 -3 72 -1 18 -9 40 -20 50 -21 20 -26 50 -36 218 -3
55 -8 123 -10 150 -2 28 -7 104 -11 170 -3 66 -7 134 -8 150 -1 17 -6 36 -10
43 -8 13 -54 16 -73 4 -9 -6 -13 -97 -14 -362 -2 -299 -4 -358 -17 -372 -8
-10 -15 -31 -14 -47 1 -28 -3 -30 -51 -40 -67 -14 -113 -22 -202 -36 -11 -1
-19 -7 -19 -11 1 -5 5 -34 8 -64 18 -151 39 -255 71 -355 19 -60 40 -118 45
-128 8 -14 4 -27 -21 -62 -34 -47 -35 -53 -24 -210 2 -22 4 -51 4 -65 2 -38
98 -96 175 -104 33 -4 61 -8 62 -9 2 -1 5 -77 9 -167 3 -91 8 -212 10 -270 3
-58 7 -163 10 -235 3 -71 7 -179 10 -240 17 -365 17 -365 2 -365 -8 0 -22 -9
-31 -19 -16 -18 -17 -36 -11 -193 3 -95 8 -225 10 -288 2 -63 6 -167 10 -230
3 -63 7 -176 10 -250 3 -74 7 -189 10 -256 l5 -121 -81 -18 c-44 -9 -86 -18
-92 -20 -7 -1 -31 -6 -53 -10 -33 -6 -55 -21 -109 -75 -62 -62 -67 -70 -62
-103 4 -28 -1 -42 -25 -71 -26 -32 -28 -41 -25 -96 3 -52 7 -65 31 -83 28 -23
28 -27 35 -224 1 -15 15 -31 43 -49 68 -43 171 -93 180 -88 4 3 8 1 8 -4 0 -7
-74 -27 -215 -56 -11 -3 -72 -17 -135 -31 -63 -15 -126 -29 -139 -31 -13 -3
-51 -11 -84 -19 -33 -8 -64 -12 -68 -9 -4 2 -5 62 -3 132 3 70 6 198 8 285 2
86 5 159 7 161 2 2 22 7 44 10 87 14 113 26 135 61 18 30 21 47 19 145 -2 91
-6 116 -21 135 -14 18 -15 24 -5 28 22 8 106 238 112 304 2 32 8 88 11 124 l6
65 -45 2 c-25 2 -56 5 -68 7 -13 3 -55 7 -94 10 -124 10 -132 14 -127 62 3 26
0 40 -12 49 -18 13 -22 42 -30 214 -23 489 -18 458 -75 445 l-31 -7 -1 -96 c0
-53 -1 -200 -2 -325 -2 -172 -5 -230 -15 -236 -9 -5 -13 -55 -14 -194 0 -103
-4 -187 -7 -187 -3 0 -44 7 -91 15 -218 39 -222 38 -196 -93 19 -94 33 -137
50 -156 6 -7 24 -27 41 -44 31 -35 33 -44 34 -197 l1 -80 63 -32 c34 -17 80
-32 102 -32 21 -1 41 -4 43 -6 3 -3 5 -446 3 -570 l-1 -31 -94 -12 c-51 -7
-104 -15 -117 -17 -13 -2 -60 -9 -104 -15 -44 -6 -91 -13 -105 -15 -38 -6
-219 -33 -270 -40 -25 -3 -56 -8 -70 -10 -14 -2 -45 -7 -70 -10 -25 -3 -52 -7
-60 -10 -8 -2 -40 -7 -70 -10 -30 -3 -80 -10 -110 -15 -30 -5 -77 -12 -105
-15 -53 -7 -84 -11 -125 -19 -14 -3 -47 -8 -75 -11 -43 -5 -112 -15 -205 -30
-14 -2 -45 -6 -70 -10 -25 -3 -56 -8 -70 -10 -14 -2 -45 -7 -70 -10 -62 -9
-100 -14 -205 -30 -49 -8 -110 -17 -135 -20 -25 -3 -56 -8 -70 -10 -14 -2 -45
-7 -70 -10 -25 -4 -56 -8 -70 -10 -14 -2 -74 -11 -135 -20 -60 -9 -122 -18
-136 -21 -15 -2 -47 -6 -70 -9 -24 -3 -69 -10 -99 -15 -30 -5 -77 -12 -105
-15 -27 -3 -63 -8 -80 -11 -58 -9 -81 -13 -230 -34 -82 -12 -159 -23 -170 -24
-11 -2 -76 -12 -145 -22 l-125 -17 -80 54 -80 54 -155 -1 c-158 -2 -517 -13
-602 -19 -31 -2 -49 1 -49 8 -3 21 -7 158 -10 337 -1 96 -5 180 -8 185 -3 6
-4 57 -2 115 l3 105 -115 93 -114 92 -156 50 c-170 55 -165 54 -251 65 -32 3
-68 8 -80 10 -38 7 -180 26 -231 32 -27 3 -97 6 -154 5 l-103 0 6 122 c4 66 9
153 11 191 3 39 7 108 10 155 8 147 17 303 19 353 2 26 -5 82 -16 125 -10 42
-21 90 -24 106 -2 16 -7 32 -9 36 -3 5 -49 195 -60 250 -2 8 -21 90 -44 182
-22 92 -42 178 -45 190 -13 67 -108 456 -116 473 -5 11 -23 61 -40 110 -17 50
-40 113 -50 140 -10 28 -55 154 -100 280 -45 127 -101 284 -125 350 -107 296
-147 414 -166 489 -11 45 -22 88 -24 96 -2 8 -24 96 -50 195 -25 99 -48 191
-51 205 -2 14 -7 32 -10 40 -3 8 -30 112 -60 230 -30 118 -66 258 -80 311 -30
117 -30 117 -39 202 -3 37 -8 76 -10 85 -1 9 -6 49 -9 87 -4 39 -9 81 -11 95
-2 14 -9 70 -15 125 -6 55 -13 114 -15 130 -2 17 -7 57 -10 90 -3 33 -7 74
-10 90 -2 17 -7 57 -10 90 -4 33 -8 71 -11 85 -2 14 -6 57 -10 95 -3 39 -8 79
-10 90 -2 11 -7 49 -10 83 -3 35 -7 73 -10 85 -2 12 -6 51 -10 87 -3 36 -7 75
-9 88 -2 13 -7 53 -11 90 -3 37 -8 75 -9 84 -2 9 -7 52 -10 95 -4 43 -8 80
-10 83 -2 3 -6 38 -10 78 -3 41 -8 81 -10 90 -1 9 -6 46 -9 82 -4 36 -9 81
-11 100 -7 55 -24 199 -31 265 -3 33 -7 67 -9 75 -1 8 -6 49 -10 90 -4 41 -9
83 -10 92 -2 9 -7 47 -10 83 -6 55 -4 68 9 78 9 7 17 21 18 32 1 18 -9 159
-17 245 -2 19 -6 73 -10 120 -9 116 -11 138 -30 260 -3 14 -9 59 -15 100 -24
163 -31 206 -35 230 -2 14 -6 45 -10 70 -3 25 -8 58 -11 73 -3 16 -7 38 -9 50
-11 94 -30 191 -50 256 -100 327 -130 422 -150 470 -13 31 -44 108 -70 171
-26 63 -82 186 -123 272 -85 174 -83 172 -187 184 -62 7 -234 12 -238 7z
m-9233 -13637 c-4 -39 -7 -79 -6 -88 0 -12 -7 -18 -20 -18 -19 0 -20 4 -15 78
4 42 6 84 7 94 0 11 6 15 21 11 19 -5 20 -10 13 -77z m5851 -3295 c3 -5 2 -12
-3 -15 -5 -3 -9 1 -9 9 0 17 3 19 12 6z m2 -101 c2 -11 -1 -20 -5 -20 -4 0 -8
11 -8 25 0 28 8 24 13 -5z"/>
</g>
</svg>
